#!OML:ASF I:\Actors\actors\Patient Classification 2\Patient 1\Session 1\actor1.ASF
:FULLY-SPECIFIED
:DEGREES
187
root -0.956195 18.3034 7.30568 -2.63659 -9.36214 -5.91022
lowerback -1.2336 -1.4548 1.2615
upperback -7.87479 -1.90936 0.444593
thorax -7.55055 -1.02035 -0.135424
lowerneck -9.73868 -10.518 -7.47587
upperneck 29.3348 -15.5468 4.97913
head 12.2802 -7.36574 0.906759
rclavicle 1.43125e-014 3.57812e-015
rhumerus -34.9652 10.7283 -95.3983
rradius 110.92
rwrist 26.7069
rhand 16.3079 -50.0986
rfingers 7.12502
rthumb 41.0813 -74.9891
lclavicle 1.43125e-014 3.57812e-015
lhumerus -31.6932 -13.4937 101.547
lradius 118.235
lwrist -25.2209
lhand 41.3065 1.69401
lfingers 7.12502
lthumb 63.4689 11.2302
rfemur 16.1845 8.16452 21.2771
rtibia 9.54166e-015
rfoot -18.0736 -10.9518
rtoes -21.3013
lfemur 4.18714 0.201559 -8.02006
ltibia 27.7426
lfoot -28.1051 9.48728
ltoes -56.9379
188
root -0.952162 18.2998 7.30802 -2.63031 -9.46823 -5.87422
lowerback -1.12846 -1.42742 1.32513
upperback -7.90891 -1.868 0.462272
thorax -7.64995 -1.00379 -0.150824
lowerneck -10.9792 -8.83033 -5.69358
upperneck 29.8281 -13.2794 4.59838
head 12.3746 -6.1531 0.781338
rclavicle 9.14409e-015 -1.98785e-015
rhumerus -35.1242 10.607 -95.4315
rradius 111.02
rwrist 26.6915
rhand 16.1668 -50.0764
rfingers 7.12502
rthumb 40.9488 -75.009
lclavicle 9.14409e-015 -1.98785e-015
lhumerus -31.9725 -13.5348 101.825
lradius 118.365
lwrist -25.3698
lhand 41.1792 1.67253
lfingers 7.12502
lthumb 63.3652 11.3559
rfemur 16.1782 8.27573 21.24
rtibia 5.725e-014
rfoot -18.0671 -11.0091
rtoes -21.5257
lfemur 4.17236 0.553923 -8.04999
ltibia 27.6976
lfoot -27.7116 10.0567
ltoes -57.9989
189
root -0.947935 18.3009 7.31235 -2.63821 -9.561 -5.80931
lowerback -1.07468 -1.37898 1.34384
upperback -7.90959 -1.79976 0.492655
thorax -7.68053 -0.970167 -0.131762
lowerneck -12.1772 -7.09379 -3.80163
upperneck 30.3884 -11.0026 4.13365
head 12.5392 -4.9321 0.600584
rclavicle -2.38542e-015 1.98785e-015
rhumerus -35.2544 10.5061 -95.4391
rradius 111.113
rwrist 26.6651
rhand 15.9351 -50.0033
rfingers 7.12502
rthumb 40.7311 -75.0046
lclavicle -2.38542e-015 1.98785e-015
lhumerus -31.9612 -13.6225 101.899
lradius 118.355
lwrist -25.3204
lhand 41.2466 1.69868
lfingers 7.12502
lthumb 63.4202 11.3043
rfemur 16.1849 8.37678 21.1648
rtibia 3.49861e-014
rfoot -18.0759 -11.019
rtoes -21.4491
lfemur 4.23581 0.694264 -8.1182
ltibia 27.6221
lfoot -27.6428 10.0942
ltoes -58.0991
190
root -0.943759 18.3033 7.31681 -2.63627 -9.62313 -5.6915
lowerback -1.06993 -1.29395 1.30231
upperback -7.90952 -1.68653 0.50064
thorax -7.67975 -0.911118 -0.106614
lowerneck -12.987 -5.6721 -2.31676
upperneck 30.7844 -9.19577 3.86789
head 12.68 -3.95517 0.501506
rclavicle 4.96962e-015 0
rhumerus -35.4005 10.4421 -95.4355
rradius 111.195
rwrist 26.5139
rhand 15.737 -50.1642
rfingers 7.12502
rthumb 40.545 -75.2235
lclavicle 4.96962e-015 0
lhumerus -31.6865 -13.8269 101.765
lradius 118.173
lwrist -25.0522
lhand 41.3985 1.88807
lfingers 7.12502
lthumb 63.5438 11.317
rfemur 16.1691 8.45305 21.0183
rtibia -6.36111e-015
rfoot -18.094 -10.9661
rtoes -20.9935
lfemur 4.27773 0.884731 -8.22674
ltibia 27.5425
lfoot -27.5778 10.0595
ltoes -58.1408
191
root -0.940026 18.3061 7.32131 -2.60242 -9.61575 -5.58922
lowerback -1.06413 -1.18486 1.25591
upperback -7.92105 -1.54045 0.516998
thorax -7.69157 -0.835184 -0.071613
lowerneck -13.4644 -4.69634 -1.32193
upperneck 31.0027 -7.95592 3.67541
head 12.7639 -3.29089 0.436527
rclavicle 1.94809e-014 -1.82882e-014
rhumerus -35.5358 10.3551 -95.401
rradius 111.259
rwrist 26.5262
rhand 15.7758 -50.3381
rfingers 7.12502
rthumb 40.5814 -75.3861
lclavicle 1.94809e-014 -1.82882e-014
lhumerus -31.5203 -14.0825 101.751
lradius 118.027
lwrist -24.8007
lhand 41.2729 1.97105
lfingers 7.12502
lthumb 63.4416 11.5462
rfemur 16.1207 8.45903 20.882
rtibia -2.54444e-014
rfoot -18.0916 -10.9079
rtoes -20.6747
lfemur 4.26935 1.01217 -8.32419
ltibia 27.4678
lfoot -27.5321 10.0011
ltoes -58.0861
192
root -0.93579 18.3095 7.32692 -2.53648 -9.52381 -5.54572
lowerback -1.09433 -1.08379 1.2777
upperback -7.91721 -1.40192 0.555571
thorax -7.66751 -0.766455 -0.0520605
lowerneck -13.8526 -4.08375 -0.669787
upperneck 31.2028 -7.14788 3.41478
head 12.863 -2.87199 0.33992
rclavicle 1.96797e-014 6.36111e-015
rhumerus -35.5405 10.2282 -95.2941
rradius 111.201
rwrist 26.7459
rhand 15.8905 -50.081
rfingers 7.12502
rthumb 40.6892 -75.0953
lclavicle 1.96797e-014 6.36111e-015
lhumerus -31.4455 -14.2704 101.813
lradius 117.983
lwrist -24.6129
lhand 41.1068 1.71975
lfingers 7.12502
lthumb 63.3061 11.4864
rfemur 16.0611 8.3762 20.805
rtibia -3.33958e-014
rfoot -18.0488 -10.917
rtoes -20.8106
lfemur 4.21635 0.964367 -8.40405
ltibia 27.3877
lfoot -27.521 10.0517
ltoes -58.0315
193
root -0.930312 18.3127 7.33321 -2.49748 -9.37234 -5.51242
lowerback -1.12962 -0.997655 1.35523
upperback -7.90525 -1.28313 0.570054
thorax -7.63411 -0.712008 -0.0878273
lowerneck -14.1149 -3.75587 -0.247023
upperneck 31.4017 -6.68834 3.10899
head 12.9589 -2.64589 0.214579
rclavicle 8.54774e-015 2.10712e-014
rhumerus -35.4813 10.1964 -95.2389
rradius 111.029
rwrist 26.8705
rhand 15.8135 -49.8159
rfingers 7.12502
rthumb 40.6168 -74.8528
lclavicle 8.54774e-015 2.10712e-014
lhumerus -31.4271 -14.4073 101.821
lradius 117.991
lwrist -24.445
lhand 41.0598 1.47401
lfingers 7.12502
lthumb 63.2677 11.2946
rfemur 16.0449 8.23383 20.7342
rtibia 2.8625e-014
rfoot -18.0181 -10.9405
rtoes -20.919
lfemur 4.17555 0.826325 -8.49918
ltibia 27.3113
lfoot -27.5054 10.2068
ltoes -58.0952
194
root -0.924244 18.3149 7.34054 -2.52522 -9.19196 -5.47905
lowerback -1.09692 -0.912725 1.43724
upperback -7.90166 -1.16522 0.571888
thorax -7.64958 -0.658849 -0.137726
lowerneck -14.201 -3.63059 -0.0159736
upperneck 31.5219 -6.47852 2.82898
head 13.0012 -2.55656 0.097489
rclavicle -1.33186e-014 1.51076e-014
rhumerus -35.517 10.2419 -95.2821
rradius 110.905
rwrist 26.969
rhand 15.7115 -49.8864
rfingers 7.12502
rthumb 40.5209 -74.9531
lclavicle -1.33186e-014 1.51076e-014
lhumerus -31.5143 -14.5347 101.817
lradius 118.056
lwrist -24.314
lhand 40.918 1.40228
lfingers 7.12502
lthumb 63.1517 11.3843
rfemur 16.1116 8.06304 20.6641
rtibia 2.70347e-014
rfoot -18.0214 -10.9198
rtoes -20.8598
lfemur 4.19872 0.630279 -8.60195
ltibia 27.2476
lfoot -27.5054 10.3495
ltoes -58.1447
195
root -0.919323 18.3166 7.34824 -2.56451 -8.99984 -5.46211
lowerback -1.0437 -0.822396 1.49488
upperback -7.89941 -1.03897 0.59562
thorax -7.67703 -0.599116 -0.151298
lowerneck -14.1941 -3.61981 0.0733481
upperneck 31.5688 -6.40772 2.5951
head 13.0036 -2.54342 0.00327951
rclavicle -5.42682e-014 7.15625e-015
rhumerus -35.5844 10.2655 -95.3241
rradius 110.83
rwrist 27.0588
rhand 15.6496 -50.0207
rfingers 7.12502
rthumb 40.4628 -75.1054
lclavicle -5.42682e-014 7.15625e-015
lhumerus -31.5938 -14.6325 101.798
lradius 118.146
lwrist -24.2228
lhand 40.8727 1.29073
lfingers 7.12502
lthumb 63.1146 11.324
rfemur 16.2014 7.87943 20.6126
rtibia -2.54444e-014
rfoot -18.047 -10.8485
rtoes -20.6791
lfemur 4.23305 0.383313 -8.68705
ltibia 27.1919
lfoot -27.5547 10.4221
ltoes -58.0646
196
root -0.915277 18.3185 7.35532 -2.54718 -8.78038 -5.46313
lowerback -1.08343 -0.746828 1.56543
upperback -7.88659 -0.933694 0.625172
thorax -7.63923 -0.550138 -0.166573
lowerneck -14.1261 -3.63247 0.122621
upperneck 31.5457 -6.3726 2.41401
head 12.9682 -2.54651 -0.0672909
rclavicle -6.16232e-015 -1.03368e-014
rhumerus -35.5619 10.2849 -95.3589
rradius 110.766
rwrist 27.0273
rhand 15.6795 -50.0598
rfingers 7.12502
rthumb 40.4909 -75.1358
lclavicle -6.16232e-015 -1.03368e-014
lhumerus -31.5896 -14.6994 101.719
lradius 118.208
lwrist -24.117
lhand 41.0294 1.29425
lfingers 7.12502
lthumb 63.2428 11.1496
rfemur 16.229 7.66796 20.5724
rtibia 0
rfoot -18.0683 -10.7847
rtoes -20.6381
lfemur 4.19587 0.161807 -8.73098
ltibia 27.148
lfoot -27.586 10.4377
ltoes -57.9792
